name analog
datacolumns 19
datarows 50
range 0.17200000000000001 0.1965
endheader
time	ground_force_vx	ground_force_vy	ground_force_vz	ground_force_px	ground_force_py	ground_force_pz	l_ground_force_vx	l_ground_force_vy	l_ground_force_vz	l_ground_force_px	l_ground_force_py	l_ground_force_pz	ground_torque_x	ground_torque_y	ground_torque_z	l_ground_torque_x	l_ground_torque_y	l_ground_torque_z
0.17200000000000001	-0.0	-0.0	-0.0	-1.1917659044265747	5.426287651062012	-725.1206665039062	-0.0	-0.0	-0.0	-0.0	-0.0	-0.0	-0.0	-0.0	-0.0	-0.0	-0.0	-0.0
0.17250000000000001	-0.0	-0.0	-0.0	-1.6311644315719604	5.233341217041016	-724.5567626953125	-0.0	-0.0	-0.0	-0.0	-0.0	-0.0	-0.0	-0.0	-0.0	-0.0	-0.0	-0.0
0.17300000000000001	-0.0	-0.0	-0.0	-0.8135070204734802	5.872003555297852	-724.7422485351562	-0.0	-0.0	-0.0	-0.0	-0.0	-0.0	-0.0	-0.0	-0.0	-0.0	-0.0	-0.0
0.17350000000000002	-0.0	-0.0	-0.0	-0.5200675129890442	6.003428936004639	-722.8573608398438	-0.0	-0.0	-0.0	-0.0	-0.0	-0.0	-0.0	-0.0	-0.0	-0.0	-0.0	-0.0
0.17400000000000002	-0.0	-0.0	-0.0	-0.6926146149635315	6.731809616088867	-723.1261596679688	-0.0	-0.0	-0.0	-0.0	-0.0	-0.0	-0.0	-0.0	-0.0	-0.0	-0.0	-0.0
0.17450000000000002	-0.0	-0.0	-0.0	-0.4145245254039764	7.125300884246826	-724.3101806640625	-0.0	-0.0	-0.0	-0.0	-0.0	-0.0	-0.0	-0.0	-0.0	-0.0	-0.0	-0.0
0.17500000000000002	-0.0	-0.0	-0.0	0.5457335710525513	8.252302169799805	-723.4783325195312	-0.0	-0.0	-0.0	-0.0	-0.0	-0.0	-0.0	-0.0	-0.0	-0.0	-0.0	-0.0
0.17550000000000002	-0.0	-0.0	-0.0	0.9234000444412231	8.79731273651123	-725.7847900390625	-0.0	-0.0	-0.0	-0.0	-0.0	-0.0	-0.0	-0.0	-0.0	-0.0	-0.0	-0.0
0.176	-0.0	-0.0	-0.0	1.858526349067688	10.092537879943848	-725.931884765625	-0.0	-0.0	-0.0	-0.0	-0.0	-0.0	-0.0	-0.0	-0.0	-0.0	-0.0	-0.0
0.1765	-0.0	-0.0	-0.0	2.425292730331421	10.983763694763184	-722.4171752929688	-0.0	-0.0	-0.0	-0.0	-0.0	-0.0	-0.0	-0.0	-0.0	-0.0	-0.0	-0.0
0.177	-0.0	-0.0	-0.0	2.6115550994873047	12.073898315429688	-723.4352416992188	-0.0	-0.0	-0.0	-0.0	-0.0	-0.0	-0.0	-0.0	-0.0	-0.0	-0.0	-0.0
0.1775	-0.0	-0.0	-0.0	3.1429829597473145	12.82803440093994	-721.77734375	-0.0	-0.0	-0.0	-0.0	-0.0	-0.0	-0.0	-0.0	-0.0	-0.0	-0.0	-0.0
0.178	-0.0	-0.0	-0.0	3.242384672164917	14.250604629516602	-721.6685791015625	-0.0	-0.0	-0.0	-0.0	-0.0	-0.0	-0.0	-0.0	-0.0	-0.0	-0.0	-0.0
0.1785	-0.0	-0.0	-0.0	3.3138773441314697	16.55781364440918	-719.5084838867188	-0.0	-0.0	-0.0	-0.0	-0.0	-0.0	-0.0	-0.0	-0.0	-0.0	-0.0	-0.0
0.179	-0.0	-0.0	-0.0	4.113888263702393	18.134254455566406	-717.187255859375	-0.0	-0.0	-0.0	-0.0	-0.0	-0.0	-0.0	-0.0	-0.0	-0.0	-0.0	-0.0
0.1795	-0.0	-0.0	-0.0	3.5300393104553223	19.70797538757324	-715.1893310546875	-0.0	-0.0	-0.0	-0.0	-0.0	-0.0	-0.0	-0.0	-0.0	-0.0	-0.0	-0.0
0.18	-0.0	-0.0	-0.0	3.49946403503418	21.29204750061035	-712.9577026367188	-0.0	-0.0	-0.0	-0.0	-0.0	-0.0	-0.0	-0.0	-0.0	-0.0	-0.0	-0.0
0.1805	-0.0	-0.0	-0.0	3.76702094078064	21.92607879638672	-712.7907104492188	-0.0	-0.0	-0.0	-0.0	-0.0	-0.0	-0.0	-0.0	-0.0	-0.0	-0.0	-0.0
0.181	-0.0	-0.0	-0.0	4.054723739624023	21.144012451171875	-710.0855102539062	-0.0	-0.0	-0.0	-0.0	-0.0	-0.0	-0.0	-0.0	-0.0	-0.0	-0.0	-0.0
0.1815	-0.0	-0.0	-0.0	4.906578063964844	21.02475929260254	-712.677490234375	-0.0	-0.0	-0.0	-0.0	-0.0	-0.0	-0.0	-0.0	-0.0	-0.0	-0.0	-0.0
0.182	-0.0	-0.0	-0.0	4.638946533203125	19.85612678527832	-712.0107421875	-0.0	-0.0	-0.0	-0.0	-0.0	-0.0	-0.0	-0.0	-0.0	-0.0	-0.0	-0.0
0.1825	-0.0	-0.0	-0.0	4.65887451171875	18.845870971679688	-715.58203125	-0.0	-0.0	-0.0	-0.0	-0.0	-0.0	-0.0	-0.0	-0.0	-0.0	-0.0	-0.0
0.183	-0.0	-0.0	-0.0	4.27217960357666	17.17253303527832	-715.6997680664062	-0.0	-0.0	-0.0	-0.0	-0.0	-0.0	-0.0	-0.0	-0.0	-0.0	-0.0	-0.0
0.1835	-0.0	-0.0	-0.0	3.885717630386353	15.97433090209961	-718.603759765625	-0.0	-0.0	-0.0	-0.0	-0.0	-0.0	-0.0	-0.0	-0.0	-0.0	-0.0	-0.0
0.184	-0.0	-0.0	-0.0	3.043018102645874	14.300735473632812	-717.8177490234375	-0.0	-0.0	-0.0	-0.0	-0.0	-0.0	-0.0	-0.0	-0.0	-0.0	-0.0	-0.0
0.1845	-0.0	-0.0	-0.0	2.448784828186035	12.82496452331543	-717.2695922851562	-0.0	-0.0	-0.0	-0.0	-0.0	-0.0	-0.0	-0.0	-0.0	-0.0	-0.0	-0.0
0.185	-0.0	-0.0	-0.0	2.598050832748413	11.785923957824709	-717.7824096679688	-0.0	-0.0	-0.0	-0.0	-0.0	-0.0	-0.0	-0.0	-0.0	-0.0	-0.0	-0.0
0.1855	-0.0	-0.0	-0.0	1.446884036064148	10.369762420654297	-716.6793212890625	-0.0	-0.0	-0.0	-0.0	-0.0	-0.0	-0.0	-0.0	-0.0	-0.0	-0.0	-0.0
0.186	-0.0	-0.0	-0.0	0.930981457233429	9.130142211914062	-717.1930541992188	-0.0	-0.0	-0.0	-0.0	-0.0	-0.0	-0.0	-0.0	-0.0	-0.0	-0.0	-0.0
0.1865	-0.0	-0.0	-0.0	0.5954328775405884	8.905454635620117	-715.5042724609375	-0.0	-0.0	-0.0	-0.0	-0.0	-0.0	-0.0	-0.0	-0.0	-0.0	-0.0	-0.0
0.187	-0.0	-0.0	-0.0	0.0505903363227844	8.272147178649902	-714.3209838867188	-0.0	-0.0	-0.0	-0.0	-0.0	-0.0	-0.0	-0.0	-0.0	-0.0	-0.0	-0.0
0.1875	-0.0	-0.0	-0.0	-0.8728727102279663	6.952171325683594	-711.97265625	-0.0	-0.0	-0.0	-0.0	-0.0	-0.0	-0.0	-0.0	-0.0	-0.0	-0.0	-0.0
0.188	-0.0	-0.0	-0.0	-1.6854223012924194	6.197841644287109	-709.72802734375	-0.0	-0.0	-0.0	-0.0	-0.0	-0.0	-0.0	-0.0	-0.0	-0.0	-0.0	-0.0
0.1885	-0.0	-0.0	-0.0	-2.2970426082611084	5.656688690185547	-711.2288818359375	-0.0	-0.0	-0.0	-0.0	-0.0	-0.0	-0.0	-0.0	-0.0	-0.0	-0.0	-0.0
0.189	-0.0	-0.0	-0.0	-3.1830382347106934	3.9407472610473633	-710.0565795898438	-0.0	-0.0	-0.0	-0.0	-0.0	-0.0	-0.0	-0.0	-0.0	-0.0	-0.0	-0.0
0.1895	-0.0	-0.0	-0.0	-3.4981589317321777	2.950769186019897	-711.9732666015625	-0.0	-0.0	-0.0	-0.0	-0.0	-0.0	-0.0	-0.0	-0.0	-0.0	-0.0	-0.0
0.19	-0.0	-0.0	-0.0	-4.8173675537109375	1.196403980255127	-713.4234619140625	-0.0	-0.0	-0.0	-0.0	-0.0	-0.0	-0.0	-0.0	-0.0	-0.0	-0.0	-0.0
0.1905	-0.0	-0.0	-0.0	-5.084999084472656	0.5769025683403015	-713.7393798828125	-0.0	-0.0	-0.0	-0.0	-0.0	-0.0	-0.0	-0.0	-0.0	-0.0	-0.0	-0.0
0.191	-0.0	-0.0	-0.0	-5.568538188934326	-0.243803471326828	-717.1229858398438	-0.0	-0.0	-0.0	-0.0	-0.0	-0.0	-0.0	-0.0	-0.0	-0.0	-0.0	-0.0
0.1915	-0.0	-0.0	-0.0	-6.1036458015441895	-1.938106060028076	-717.177001953125	-0.0	-0.0	-0.0	-0.0	-0.0	-0.0	-0.0	-0.0	-0.0	-0.0	-0.0	-0.0
0.192	-0.0	-0.0	-0.0	-5.915829181671143	-2.03529691696167	-723.5181884765625	-0.0	-0.0	-0.0	-0.0	-0.0	-0.0	-0.0	-0.0	-0.0	-0.0	-0.0	-0.0
0.1925	-0.0	-0.0	-0.0	-5.878620624542236	-2.4771218299865723	-722.7530517578125	-0.0	-0.0	-0.0	-0.0	-0.0	-0.0	-0.0	-0.0	-0.0	-0.0	-0.0	-0.0
0.193	-0.0	-0.0	-0.0	-5.780214786529541	-1.942417025566101	-723.3490600585938	-0.0	-0.0	-0.0	-0.0	-0.0	-0.0	-0.0	-0.0	-0.0	-0.0	-0.0	-0.0
0.1935	-0.0	-0.0	-0.0	-5.235794544219971	-1.453687071800232	-726.8807983398438	-0.0	-0.0	-0.0	-0.0	-0.0	-0.0	-0.0	-0.0	-0.0	-0.0	-0.0	-0.0
0.194	-0.0	-0.0	-0.0	-4.6731390953063965	-2.120806932449341	-724.6261596679688	-0.0	-0.0	-0.0	-0.0	-0.0	-0.0	-0.0	-0.0	-0.0	-0.0	-0.0	-0.0
0.1945	-0.0	-0.0	-0.0	-4.183763027191162	-1.9335010051727293	-727.86767578125	-0.0	-0.0	-0.0	-0.0	-0.0	-0.0	-0.0	-0.0	-0.0	-0.0	-0.0	-0.0
0.195	-0.0	-0.0	-0.0	-4.005367755889893	-1.897188186645508	-729.071533203125	-0.0	-0.0	-0.0	-0.0	-0.0	-0.0	-0.0	-0.0	-0.0	-0.0	-0.0	-0.0
0.1955	-0.0	-0.0	-0.0	-4.451458930969238	-1.8717384338378904	-729.5262451171875	-0.0	-0.0	-0.0	-0.0	-0.0	-0.0	-0.0	-0.0	-0.0	-0.0	-0.0	-0.0
0.196	-0.0	-0.0	-0.0	-4.13076639175415	-1.809666872024536	-729.7727661132812	-0.0	-0.0	-0.0	-0.0	-0.0	-0.0	-0.0	-0.0	-0.0	-0.0	-0.0	-0.0
0.1965	-0.0	-0.0	-0.0	-4.353334426879883	-2.655947685241699	-727.90380859375	-0.0	-0.0	-0.0	-0.0	-0.0	-0.0	-0.0	-0.0	-0.0	-0.0	-0.0	-0.0
